<svg id="Layer_1" enable-background="new 0 0 512 512" height="512" viewBox="0 0 512 512" width="512" xmlns="http://www.w3.org/2000/svg"><path clip-rule="evenodd" d="m284.22 263.48c-28.968-31.875-70.705-51.967-116.906-51.967-82.562 0-150.867 64.154-157.526 145.072-.579 7.035 4.904 12.986 11.962 12.986h222.54c-.187-2.934-.292-5.887-.292-8.865 0-37.958 15.369-72.327 40.222-97.226zm97.407-23.402c66.62 0 120.628 54.008 120.628 120.629s-54.008 120.629-120.628 120.629c-66.622 0-120.629-54.008-120.629-120.629s54.007-120.629 120.629-120.629zm-.001 110.305c-8.539 0-15.463 6.924-15.463 15.465 0 5.4 2.769 10.152 6.964 12.918v9.105c0 4.693 3.806 8.5 8.5 8.5s8.5-3.807 8.5-8.5v-9.105c4.195-2.766 6.963-7.518 6.963-12.918 0-8.541-6.923-15.465-15.464-15.465zm-40.249-19.27h-6.65c-4.101 0-7.456 3.355-7.456 7.457v70.627c0 4.102 3.355 7.457 7.456 7.457h93.799c4.102 0 7.456-3.355 7.456-7.457v-70.627c0-4.102-3.354-7.457-7.456-7.457h-6.649v-15.223c0-22.152-18.096-40.248-40.25-40.248-22.153 0-40.249 18.094-40.249 40.248v15.223zm63.499 0v-15.223c0-12.77-10.479-23.248-23.25-23.248-12.77 0-23.249 10.479-23.249 23.248v15.223zm-237.563-300.449c47.179 0 85.426 38.246 85.426 85.426 0 47.178-38.247 85.424-85.426 85.424s-85.425-38.246-85.425-85.424c0-47.18 38.246-85.426 85.425-85.426z" fill="#1980f2" fill-rule="evenodd"/></svg>